# xmcd
#
# Track frame offsets:
#	150
#	15683
#	29787
#	46652
#	64053
#	83030
#	96550
#	112893
#	133214
#	151436
#	169947
#	186240
#	201815
#
# Disc length: 2913 seconds
#
# Revision: 0
# Processed by: cddbd v1.5.2PL0 Copyright (c) Steve Scherf et al.
# Submitted via: EasyCDDAExtractor 15.0.0.1
#
DISCID=b30b5f0d
DTITLE=Os canarinhos  de Goias - Taça sobre a mesa
DYEAR=1900
DGENRE=
TTITLE0=Taca sobre a mesa
TTITLE1=Fruto do amor
TTITLE2=Essa noite eu quero amar
TTITLE3=Festa de rodeio
TTITLE4=Sera que fez
TTITLE5=Serenata do amor
TTITLE6=Te amo te amo
TTITLE7=Te quero por toda vida
TTITLE8=Grande erro
TTITLE9=Ainda amo voce
TTITLE10=Filho sem pai
TTITLE11=Castelo bonito
TTITLE12=Vem viver ao meu lado
EXTD=
EXTT0=
EXTT1=
EXTT2=
EXTT3=
EXTT4=
EXTT5=
EXTT6=
EXTT7=
EXTT8=
EXTT9=
EXTT10=
EXTT11=
EXTT12=
PLAYORDER=
